<svg width="512" height="512" viewBox="0 0 512 512" fill="none" xmlns="http://www.w3.org/2000/svg">
<path d="M131.718 180.345V200.948H132.643C134.485 198.081 136.894 195.157 139.869 192.185C142.839 189.212 146.481 186.548 150.789 184.186C155.093 181.837 159.962 179.884 165.397 178.344C170.825 176.808 176.93 176.036 183.694 176.036C194.153 176.036 203.787 178.037 212.605 182.033C221.42 186.038 229.009 191.523 235.366 198.491C241.719 205.464 246.639 213.666 250.127 223.094C253.612 232.527 255.356 242.677 255.356 253.542C255.356 264.408 253.664 274.609 250.279 284.143C246.899 293.676 242.074 301.979 235.825 309.052C229.568 316.126 221.986 321.773 213.066 325.966C204.145 330.168 194.045 332.27 182.772 332.27C172.314 332.27 162.728 330.116 154.016 325.814C145.296 321.507 138.586 315.668 133.872 308.28H133.259V401.775H96.3525V180.345H131.718ZM217.834 253.54C217.834 247.798 216.961 242.107 215.219 236.469C213.473 230.832 210.861 225.758 207.375 221.244C203.888 216.742 199.483 213.099 194.15 210.327C188.818 207.561 182.566 206.177 175.392 206.177C168.625 206.177 162.574 207.612 157.247 210.484C151.914 213.357 147.35 217.051 143.56 221.554C139.763 226.067 136.896 231.193 134.949 236.935C132.996 242.677 132.028 248.421 132.028 254.158C132.028 259.9 132.996 265.59 134.949 271.224C136.896 276.868 139.763 281.94 143.56 286.453C147.352 290.961 151.914 294.604 157.247 297.365C162.574 300.137 168.625 301.515 175.392 301.515C182.566 301.515 188.818 300.085 194.15 297.213C199.48 294.341 203.888 290.652 207.375 286.139C210.861 281.631 213.473 276.505 215.219 270.763C216.961 265.021 217.834 259.279 217.834 253.54Z" fill="#ED225D"/>
<path d="M409.493 227.242C405.699 218.738 400.423 211.559 393.656 205.714C386.892 199.872 378.945 195.41 369.823 192.337C360.696 189.264 350.802 187.723 340.145 187.723C336.248 187.723 331.892 187.935 327.074 188.337C322.255 188.754 318.105 189.467 314.619 190.495L316.77 143.437H405.653V110.225H281.711L278.02 229.238C281.294 227.602 285.039 226.065 289.243 224.625C293.445 223.195 297.749 221.912 302.159 220.786C306.567 219.658 311.08 218.79 315.694 218.169C320.307 217.556 324.661 217.25 328.764 217.25C334.707 217.25 340.552 217.914 346.294 219.246C352.033 220.58 357.211 222.94 361.825 226.32C366.438 229.699 370.176 234.164 373.051 239.697C375.918 245.23 377.355 252.203 377.355 260.611C377.355 267.172 376.279 273.069 374.125 278.296C371.974 283.517 369.05 287.881 365.364 291.361C361.67 294.851 357.368 297.515 352.443 299.357C347.523 301.209 342.296 302.129 336.758 302.129C326.92 302.129 318.406 299.511 311.232 294.285C304.053 289.058 298.932 282.139 295.853 273.525L295.444 273.677L268.736 298.703C274.138 307.513 281.101 314.882 289.704 320.735C302.208 329.238 317.584 333.499 335.838 333.499C346.704 333.499 356.953 331.753 366.59 328.272C376.224 324.79 384.633 319.764 391.809 313.198C398.983 306.642 404.674 298.592 408.88 289.058C413.079 279.524 415.181 268.713 415.181 256.611C415.184 245.539 413.288 235.756 409.493 227.242Z" fill="#ED225D"/>
</svg>
